<?xml version="1.0" encoding="UTF-8"?>
<svg id="Calque_2" data-name="Calque 2" xmlns="http://www.w3.org/2000/svg" xmlns:xlink="http://www.w3.org/1999/xlink" viewBox="0 0 287.31 77.38">
  <defs>
    <style>
      .cls-1 {
        fill: url(#Dégradé_sans_nom_281);
      }

      .cls-2 {
        fill: url(#Dégradé_sans_nom_525);
      }

      .cls-3 {
        fill: url(#Dégradé_sans_nom_532);
      }

      .cls-4 {
        fill: #fff;
      }

      .cls-5 {
        fill: url(#Dégradé_sans_nom_1139);
      }
    </style>
    <linearGradient id="Dégradé_sans_nom_525" data-name="Dégradé sans nom 525" x1="33.5" y1="77.38" x2="33.5" y2="0" gradientUnits="userSpaceOnUse">
      <stop offset="0" stop-color="#03045e"/>
      <stop offset="1" stop-color="#0077b6"/>
    </linearGradient>
    <radialGradient id="Dégradé_sans_nom_1139" data-name="Dégradé sans nom 1139" cx="33.5" cy="38.69" fx="33.5" fy="38.69" r="28.88" gradientUnits="userSpaceOnUse">
      <stop offset="0" stop-color="#0077b6"/>
      <stop offset=".19" stop-color="#03045e"/>
    </radialGradient>
    <linearGradient id="Dégradé_sans_nom_532" data-name="Dégradé sans nom 532" x1="33.5" y1="65.41" x2="33.5" y2="11.97" gradientUnits="userSpaceOnUse">
      <stop offset="0" stop-color="#152f7a"/>
      <stop offset="1" stop-color="#48cae4"/>
    </linearGradient>
    <radialGradient id="Dégradé_sans_nom_281" data-name="Dégradé sans nom 281" cx="33.5" cy="38.69" fx="33.5" fy="38.69" r="19.95" gradientUnits="userSpaceOnUse">
      <stop offset="0" stop-color="#48cae4"/>
      <stop offset="1" stop-color="#152f7a"/>
    </radialGradient>
  </defs>
  <g id="Calque_1-2" data-name="Calque 1">
    <g>
      <polygon class="cls-2" points="0 19.34 0 58.03 33.5 77.38 67.01 58.03 67.01 19.34 33.51 0 0 19.34"/>
      <polygon class="cls-5" points="6.76 23.25 6.76 54.13 33.5 69.57 60.25 54.13 60.25 23.25 33.51 7.81 6.76 23.25"/>
      <polygon class="cls-3" points="10.37 25.33 10.37 52.05 33.5 65.41 56.64 52.05 56.64 25.33 33.51 11.97 10.37 25.33"/>
      <polygon class="cls-1" points="15.04 28.03 15.04 49.35 33.5 60.01 51.97 49.35 51.97 28.03 33.51 17.36 15.04 28.03"/>
      <path class="cls-4" d="M33.5,25.35l3.37,9.97,9.97,3.37-9.97,3.37-3.37,9.97-3.37-9.97-9.97-3.37,9.97-3.37,3.37-9.97Z"/>
    </g>
    <g>
      <polygon class="cls-4" points="110.15 43.63 92.5 19.87 87.23 19.87 87.23 56.91 93.99 56.91 93.99 32.69 111.59 56.91 116.91 56.91 116.91 19.87 110.15 19.87 110.15 43.63"/>
      <path class="cls-4" d="M141.46,31.11c-2.15-1.23-4.56-1.84-7.21-1.84s-5.1.61-7.26,1.84c-2.15,1.23-3.87,2.9-5.14,5.02-1.28,2.12-1.91,4.54-1.91,7.26s.64,5.14,1.91,7.26c1.28,2.12,3,3.8,5.17,5.02,2.17,1.23,4.58,1.84,7.23,1.84s5-.61,7.16-1.84c2.15-1.23,3.88-2.9,5.17-5.02,1.29-2.12,1.94-4.54,1.94-7.26s-.64-5.18-1.91-7.28c-1.28-2.1-2.99-3.77-5.14-5ZM140.74,47.59c-.65,1.24-1.52,2.21-2.63,2.91-1.11.7-2.39,1.04-3.85,1.04s-2.8-.35-3.93-1.04c-1.13-.7-2.01-1.67-2.66-2.91-.65-1.24-.97-2.64-.97-4.2s.32-2.99.97-4.2c.65-1.21,1.53-2.17,2.66-2.88,1.13-.71,2.44-1.07,3.93-1.07s2.74.36,3.85,1.07c1.11.71,1.99,1.67,2.63,2.88.65,1.21.97,2.61.97,4.2s-.32,2.96-.97,4.2Z"/>
      <polygon class="cls-4" points="168.41 29.87 161.97 47.51 155.58 29.87 148.47 29.87 159.11 56.91 164.88 56.91 175.51 29.87 168.41 29.87"/>
      <path class="cls-4" d="M194.05,30.49c-1.69-.81-3.65-1.22-5.87-1.22-1.82,0-3.51.3-5.07.89-1.56.6-2.91,1.42-4.05,2.46-1.14,1.04-1.98,2.28-2.51,3.7l5.32,2.59c.5-1.23,1.28-2.21,2.36-2.96,1.08-.75,2.31-1.12,3.7-1.12,1.49,0,2.69.39,3.6,1.17.91.78,1.37,1.75,1.37,2.91v.88l-8.05,1.31c-2.12.33-3.88.9-5.27,1.69s-2.42,1.78-3.08,2.96c-.66,1.18-.99,2.51-.99,4s.38,2.92,1.14,4.1c.76,1.18,1.84,2.08,3.23,2.71,1.39.63,3.03.94,4.92.94,1.49,0,2.85-.21,4.08-.62,1.23-.41,2.32-1.01,3.28-1.79.39-.31.75-.67,1.09-1.05v2.86h6.16v-17.99c0-1.92-.47-3.6-1.42-5.05-.94-1.44-2.26-2.57-3.95-3.38ZM192.04,49.25c-.58,1.03-1.39,1.83-2.44,2.41-1.04.58-2.25.87-3.6.87-1.06,0-1.95-.27-2.66-.82-.71-.55-1.07-1.28-1.07-2.21s.31-1.74.94-2.34c.63-.6,1.59-1.01,2.88-1.24l6.81-1.16v1.11c0,1.23-.29,2.35-.87,3.38Z"/>
      <path class="cls-4" d="M227.53,22.14c-2.67-1.51-5.82-2.26-9.47-2.26h-11.98v37.03h11.98c3.64,0,6.8-.76,9.47-2.29,2.67-1.52,4.73-3.68,6.19-6.46,1.46-2.78,2.19-6.05,2.19-9.79s-.73-7.05-2.19-9.82c-1.46-2.77-3.52-4.9-6.19-6.41ZM230.76,46.54c-1.21,2.34-2.9,4.15-5.07,5.44-2.17,1.29-4.73,1.94-7.68,1.94h-8.7v-31.07h8.7c2.92,0,5.47.64,7.66,1.91,2.19,1.28,3.88,3.07,5.09,5.39,1.21,2.32,1.81,5.05,1.81,8.2s-.61,5.84-1.81,8.18Z"/>
      <path class="cls-4" d="M260.39,33.67c-1.08-1.18-2.35-2.1-3.83-2.76-1.48-.66-3.12-.99-4.95-.99-2.39,0-4.54.6-6.46,1.79-1.92,1.19-3.45,2.83-4.57,4.9-1.13,2.07-1.69,4.42-1.69,7.03s.58,4.98,1.74,7.08c1.16,2.1,2.73,3.76,4.72,4.97,1.99,1.21,4.23,1.81,6.71,1.81,1.69,0,3.26-.28,4.7-.84s2.71-1.33,3.8-2.31,1.94-2.08,2.54-3.31l-2.54-1.34c-.89,1.52-2.05,2.74-3.48,3.65-1.43.91-3.1,1.37-5.02,1.37s-3.61-.47-5.17-1.42c-1.56-.94-2.78-2.24-3.68-3.9-.76-1.41-1.17-3-1.24-4.77h21.57c.07-.4.12-.78.15-1.14.03-.36.05-.71.05-1.04,0-1.66-.29-3.24-.87-4.75-.58-1.51-1.41-2.85-2.49-4.03ZM243.17,37.99c.86-1.64,2.04-2.93,3.53-3.88,1.49-.94,3.13-1.42,4.92-1.42s3.39.46,4.8,1.37c1.41.91,2.49,2.14,3.26,3.68.62,1.26.92,2.64.9,4.15h-18.53c.14-1.43.52-2.73,1.13-3.9Z"/>
      <polygon class="cls-4" points="287.31 30.51 283.58 30.51 276.24 41.08 268.86 30.51 265.14 30.51 274.38 43.68 265.09 56.91 268.81 56.91 276.24 46.29 283.58 56.91 287.31 56.91 278.06 43.68 287.31 30.51"/>
    </g>
  </g>
</svg>